<svg id="bold" height="512" viewBox="0 0 24 24" width="512" xmlns="http://www.w3.org/2000/svg"><path d="m17.5 11c-3.584 0-6.5 2.916-6.5 6.5s2.916 6.5 6.5 6.5 6.5-2.916 6.5-6.5-2.916-6.5-6.5-6.5zm2.5 7.5h-1.5v1.5c0 .552-.448 1-1 1s-1-.448-1-1v-1.5h-1.5c-.552 0-1-.448-1-1s.448-1 1-1h1.5v-1.5c0-.552.448-1 1-1s1 .448 1 1v1.5h1.5c.552 0 1 .448 1 1s-.448 1-1 1z"/><path d="m21 0h-7c-1.09 0-2.15.46-2.9 1.25l-10.28 10.69c-.53.56-.82 1.29-.82 2.06 0 .8.31 1.56.88 2.12l7 7c.56.57 1.32.88 2.12.88.55 0 1.09-.15 1.55-.43-.49-.49-.93-1.03-1.29-1.62-.34.1-.72.01-.97-.24l-7-7c-.19-.19-.29-.44-.29-.71 0-.26.1-.5.27-.68l10.28-10.69c.38-.41.89-.63 1.45-.63h7c.55 0 1 .45 1 1v7c0 .09-.01.19-.02.28.61.38 1.17.83 1.66 1.35.24-.51.36-1.07.36-1.63v-7c0-1.65-1.35-3-3-3z"/><path d="m19 7c-1.103 0-2-.897-2-2s.897-2 2-2 2 .897 2 2-.897 2-2 2z"/></svg>