<?xml version="1.0" standalone="no"?>
<!DOCTYPE svg PUBLIC "-//W3C//DTD SVG 20010904//EN"
 "http://www.w3.org/TR/2001/REC-SVG-20010904/DTD/svg10.dtd">
<svg version="1.0" xmlns="http://www.w3.org/2000/svg"
 width="1024.000000pt" height="1024.000000pt" viewBox="0 0 1024.000000 1024.000000"
 preserveAspectRatio="xMidYMid meet">
<metadata>
Created by potrace 1.16, written by Peter Selinger 2001-2019
</metadata>
<g transform="translate(0.000000,1024.000000) scale(0.100000,-0.100000)"
fill="#000000" stroke="none">
<path d="M610 10220 c-99 -26 -240 -97 -317 -160 -127 -103 -232 -270 -273
-434 -20 -78 -20 -120 -20 -4506 0 -4380 0 -4428 20 -4506 42 -168 159 -349
292 -449 70 -53 193 -115 284 -142 56 -17 228 -18 3394 -21 l3335 -2 1457
1457 1458 1458 0 3316 c0 3277 0 3317 -20 3395 -41 164 -146 331 -273 434 -79
65 -219 134 -321 160 -78 20 -119 20 -4510 19 -4346 0 -4432 0 -4506 -19z
m4905 -1629 c313 -56 580 -154 843 -310 652 -386 1087 -1061 1173 -1820 17
-152 7 -503 -20 -656 -100 -581 -395 -1098 -836 -1466 -50 -41 -116 -93 -148
-114 l-57 -40 0 -1012 0 -1013 -270 0 -270 0 0 -270 0 -270 -740 0 -740 0 -2
268 -3 267 -267 3 -268 2 0 968 0 967 -120 79 c-368 244 -652 566 -846 961
-119 243 -205 536 -233 797 -16 143 -13 438 4 575 35 266 112 521 229 758 341
689 974 1172 1723 1315 179 34 248 39 493 35 185 -2 260 -7 355 -24z"/>
<path d="M4960 8079 c-595 -55 -1106 -366 -1434 -871 -233 -358 -337 -837
-275 -1262 58 -399 232 -762 500 -1040 180 -187 325 -295 539 -398 69 -33 132
-63 140 -68 13 -6 15 -56 18 -339 l2 -331 740 0 740 0 0 363 0 362 68 35 c422
218 760 619 912 1081 128 387 128 797 -1 1184 -174 524 -575 949 -1086 1153
-274 109 -589 157 -863 131z"/>
<path d="M4450 2965 l0 -275 738 2 737 3 0 270 0 270 -737 3 -738 2 0 -275z"/>
</g>
</svg>
